/* XPM */
static char *ca3da2f296884f96bc3260cef8984b6cTJBJz9eyODNGYV86[] = {
/* columns rows colors chars-per-pixel */
"64 64 255 2 ",
"   c #B6B02E",
".  c #E7B500",
"X  c #E9BB0C",
"o  c #E9B807",
"O  c #F0BB08",
"+  c #E4B41C",
"@  c #ECBC1C",
"#  c #E7BB16",
"$  c #E6AF14",
"%  c #DEB728",
"&  c #CDBC3D",
"*  c #ECBB23",
"=  c #E5BD28",
"-  c #F0BF24",
";  c #E5BB32",
":  c #E7BD3A",
">  c #DCC311",
",  c #F1C40D",
"<  c #EBC213",
"1  c #EBC41C",
"2  c #E8C616",
"3  c #F0C314",
"4  c #F5C916",
"5  c #F3C51D",
"6  c #FACD1C",
"7  c #F2CD1C",
"8  c #D5C43A",
"9  c #DDC92A",
"0  c #EEC325",
"q  c #EACA22",
"w  c #EBC42B",
"e  c #E6C627",
"r  c #F5CA26",
"t  c #F1C42D",
"y  c #F3CB2B",
"u  c #F5C825",
"i  c #FAD324",
"p  c #F4D42B",
"a  c #F8D329",
"s  c #ECC43C",
"d  c #ECCB3C",
"f  c #E9C735",
"g  c #F2C534",
"h  c #F3CA34",
"j  c #F3C43B",
"k  c #F3CC3B",
"l  c #FBCF30",
"z  c #F4D435",
"x  c #FAD838",
"c  c #E8D531",
"v  c #C5B848",
"b  c #DBB944",
"n  c #DDBE55",
"m  c #C8BE5C",
"M  c #E1BC48",
"N  c #E7BE55",
"B  c #D9BF63",
"V  c #DFBE6F",
"C  c #C9BA65",
"Z  c #E5BE63",
"A  c #CAC447",
"S  c #CFC357",
"D  c #ECC444",
"F  c #EBC84A",
"G  c #F3CB43",
"H  c #F2CD4B",
"J  c #F5C547",
"K  c #EAD14A",
"L  c #FADC43",
"P  c #F8D648",
"I  c #ECCC5B",
"U  c #E7C758",
"Y  c #F3CA56",
"T  c #E8D759",
"R  c #F4D252",
"E  c #F7D659",
"W  c #F2E35B",
"Q  c #F5E047",
"!  c #DBC265",
"~  c #D9C36A",
"^  c #D6C66C",
"/  c #DBC778",
"(  c #DAD370",
")  c #E7C967",
"_  c #EED36C",
"`  c #E9D868",
"'  c #F3D464",
"]  c #F9D769",
"[  c #E4C777",
"{  c #F4C973",
"}  c #EAD879",
"|  c #F7D874",
" . c #F4CF65",
".. c #FFE464",
"X. c #F9E368",
"o. c #FDE17C",
"O. c #FEE175",
"+. c #DDD387",
"@. c #DBCC98",
"#. c #D4C88D",
"$. c #E7CD86",
"%. c #ECD383",
"&. c #E9D689",
"*. c #F6DA84",
"=. c #FBDD83",
"-. c #F3DB8A",
";. c #FBDA88",
":. c #ECDB94",
">. c #E2D39B",
",. c #EAD798",
"<. c #FADC94",
"1. c #F4DC99",
"2. c #F5E58C",
"3. c #FAE787",
"4. c #FFF68A",
"5. c #F4E49C",
"6. c #FBE39E",
"7. c #FCE895",
"8. c #FCF299",
"9. c #EDE68F",
"0. c #DBD0AC",
"q. c #EDD7A4",
"w. c #EDDAA3",
"e. c #EBDAAB",
"r. c #E7D6A9",
"t. c #F1DDA5",
"y. c #FADCA2",
"u. c #F2DBAB",
"i. c #EDDCBD",
"p. c #E6DAB4",
"a. c #F4DCB3",
"s. c #F3DBBD",
"d. c #FBDEB9",
"f. c #EEE0AF",
"g. c #F5E1A6",
"h. c #FFEDA3",
"j. c #F4E4AB",
"k. c #FCE5AA",
"l. c #FCEBAD",
"z. c #FAE7A5",
"x. c #FFF1A4",
"c. c #FFFCA5",
"v. c #FFF3AC",
"b. c #FFFAAE",
"n. c #EFE1BC",
"m. c #F3E4B5",
"M. c #FCE4B4",
"N. c #FDECB4",
"B. c #F3E4BB",
"V. c #FBE5BB",
"C. c #FCEBBD",
"Z. c #F7EBB9",
"A. c #FFF3B5",
"S. c #FEF4BB",
"D. c #FFFCBB",
"F. c #FCF7B4",
"G. c #EBDDC1",
"H. c #E5D9C6",
"J. c #F5DDC2",
"K. c #F9DEC2",
"L. c #F4DFCA",
"P. c #EEE1C3",
"I. c #ECE4CB",
"U. c #EEEACD",
"Y. c #EBE6C3",
"T. c #F2E3C4",
"R. c #F2E9C6",
"E. c #FCEBC4",
"W. c #F4E4CB",
"Q. c #FBE6CA",
"!. c #F4EACB",
"~. c #FBECCC",
"^. c #F9E4C4",
"/. c #FDF1C3",
"(. c #FEF4CC",
"). c #FFFACD",
"_. c #FFF9C5",
"`. c #EDE6D8",
"'. c #F3E5D3",
"]. c #F3EAD4",
"[. c #FBECD3",
"{. c #F5EDDC",
"}. c #FBEDDC",
"|. c #F7E5D8",
" X c #FDF5D3",
".X c #FDF4DC",
"XX c #FAF6D8",
"oX c #EFF1D9",
"OX c #F5EDE3",
"+X c #FCEEE4",
"@X c #F5EDEB",
"#X c #FCEEEA",
"$X c #F2E7E3",
"%X c #EEF5EB",
"&X c #EEF9ED",
"*X c #EFF4E0",
"=X c #F5F2E4",
"-X c #FBF3E4",
";X c #FEF9E4",
":X c #F5F6ED",
">X c #FBF3EC",
",X c #F3F9EB",
"<X c #FBFAEC",
"1X c #F3F9E5",
"2X c #FBEDF5",
"3X c #FCEEFB",
"4X c #F4EFF4",
"5X c #EFF9F4",
"6X c #EFF6FC",
"7X c #EEF8FB",
"8X c #EFF0F4",
"9X c #F1F7F2",
"0X c #F6F5F1",
"qX c #F4F6F1",
"wX c #F5F5F3",
"eX c #F6F5F3",
"rX c #F4F6F3",
"tX c #F6F6F1",
"yX c #F5F3F4",
"uX c #F2F6F6",
"iX c gray96",
"pX c #F6F4F5",
"aX c #F4F6F5",
"sX c #F5F7F4",
"dX c #F4F5F7",
"fX c #F5F5F7",
"gX c #F4F4F6",
"hX c #F6F4F7",
"jX c #F7F5F6",
"kX c #F5F7F6",
"lX c #F5F5F6",
"zX c #F8F4F1",
"xX c #F8F3F7",
"cX c #FAF2F5",
"vX c #F8F4F5",
"bX c #FAF3F4",
"nX c #F2F9F2",
"mX c #FDF9F3",
"MX c #F6F3FA",
"NX c #F2F6FA",
"BX c #F5F4F9",
"VX c #F4F5F9",
"CX c #F6F4F9",
"ZX c #F5F4FA",
"AX c #F6F6F8",
"SX c #F6F3FD",
"DX c #F5F4FC",
"FX c #F4F4FA",
"GX c #F8F3F9",
"HX c #F9F3FA",
"JX c #F9F1FF",
"KX c #F9F2FD",
"LX c #F9F3FB",
"PX c #F4F8FA",
"IX c #F9F9FA",
/* pixels */
"fXfXfXfXfXfXfXfXfXfXfXfXfXfXfXBXMXSXBXfX:X:X,X:XqXqXsXnXfXfXBXBXfXfXfXfXfXfXfXfXfXfXfXfXfXfXfXfXfXfXfXfXfXfXfXfXfXfXfXfXfXfXfXfX",
"fXfXfXfXfXfXfXfXfXfXfXfXfXfXfXBXMXMXBXfXwXwXqX,XwXqXfXfXfXfXfXfXfXfXfXfXfXfXfXfXfXfXfXfXfXfXfXfXfXfXfXfXfXfXfXfXfXfXfXfXfXfXfXfX",
"fXfXfXfXfXfXfXfXfXfXfXfXfXfXfXfXfXBXfXfXfXwXwXfXVXVXVXVXVXdXfXfXfXfXfXfXfXfXfXfXfXfXfXfXfXfXfXfXfXfXfXfXfXfXfXfXfXfXfXfXfXfXfXfX",
"fXfXfXfXfXfXfXfXfXfXfXfXfXfXfXfXcXfXfXfXfXfXfXBXVXVXDXVXVXdXdXnXfXfXfXfXfXfXfXfXfXfXfXfXfXfXfXfXfXfXfXfXfXfXfXfXfXfXfXfXfXfXfXfX",
"fXfXfXfXfXfXfXfXfXfXfXfXfXfXfXfXwXwXfXfXBXBXDXDXDXSXDXDXBXBXdXdXfXfXfXfXfXfXfXfXfXfXfXfXfXfXfXfXfXfXfXfXfXfXfXfXfXfXfXfXfXfXfXfX",
"fXfXfXfXfXfXfXfXfXfXfXfXfXfXfXfXwXwXwXfXBXBXLXBXSXDXBXBXBXBXdXdXfXfXfXfXfXfXfXfXfXfXfXfXfXfXfXfXfXfXfXfXfXfXfXfXfXfXfXfXfXfXfXfX",
"fXfXfXfXfXfXfXfXfXfXfXfXfXfXfXwXwXwXfXbXxXBXBXBXMXBXvXfXfXfXfXdXfXfXfXfXfXfXfXfXfXfXfXfXfXfXfXfXfXfXfXfXfXfXfXfXfXfXfXfXfXfXfXfX",
"fXfXfXfXfXfXfXfXfXfXfXfXfXfXfXfXwXfXwXfXfXvXfXwXbX:XbXwXfXfXBXBXfXfXfXfXfXfXfXfXfXfXfXfXfXfXfXfXfXfXfXfXfXfXfXfXfXfXfXfXfXfXfXfX",
"fXfXfXfXfXfXfXfXfXfXfXfXfXfXfXfXdXdXyXwXbX>X@X`.oX=X:X:XbXfXMXMXBXfXfXBXAXfXfXfXfXfXfXfXfXfXfXfXfXfXfXfXfXfXfXfXfXfXfXfXfXfXfXfX",
"fXfXfXfXfXfXfXfXfXfXfXfXfXfXfXfXVXVXgXzXcX<X=X].`.].{.{.=XzXHXcXBXfXBXsXfXfXfXfXfXfXfXfXfXfXfXfXfXfXfXfXfXfXfXfXfXfXfXfXfXfXfXfX",
"fXfXfXfXfXfXfXfXfXfXfXfXfXfXfXfXVXVXgXzX:X=X{.].I.I.I.].OX>XcXLXfXfXfXfXfXfXfXfXfXfXfXfXfXfXfXfXfXfXfXfXfXfXfXfXfXfXfXfXfXfXfXfX",
"fXfXfXfXfXfXfXfXfXfXfXfXfXfXfXfXVXVXdXzX>X+X{.!.R.n.P.W.`.OXbXLXfXfXfXfXfXfXfXfXfXfXfXfXfXfXfXfXfXfXfXfXfXfXfXfXfXfXfXfXfXfXfXfX",
"fXfXfXfXfXfXfXfXfXfXfXfXfXfXfXdXdXdXdXwX>X>X}.].R.T.n.P.I.`.@XcXyXfXfXfXfXfXfXfXfXfXfXfXfXfXfXfXfXfXfXfXfXfXfXfXfXfXfXfXfXfXfXfX",
"fXfXfXfXfXfXfXfXfXfXfXfXfXfXfXdXuXdXrXwXcX#X}.'.W.P.i.P.L.'.OX#XzXfXfXfXfXfXfXfXfXfXfXfXfXfXfXfXfXfXfXfXfXfXfXfXfXfXfXfXfXfXfXfX",
"fXfXfXfXfXfXfXfXfXfXfXfXfXfXfXdX9XnXfXzXcX#X-X}.W.T.P.P.G.W.'.$XzXyXyXBXfXfXfXfXfXfXfXfXfXfXfXfXfXfXfXfXfXfXfXfXfXfXfXfXfXfXfXfX",
"fXfXfXfXfXfXfXfXfXfXfXfXfXfXfXrX9XnXwXfXcX>X+X}.}.Q.G.T.T.L.W.'.:X4XyXfXfXfXdXdXfXfXfXfXfXfXwXnXfXwXfXwXfXfXfXfXVXVXBXBXfXfXfXfX",
"fXfXfXfXfXfXfXfXfXfXfXfXfXfXfXdX5X&XnXfXfXbX-X-X[.].!.P.P.J.L.'.$X2X<XbXuX5XPX7XuXdXVXVXfXwX,X,X,XrXrXrXwXwXfXBXVXDX7XgXgXDXMXyX",
"fXfXfXfXfXfXfXfXfXfXfXfXfXfXfXfXrX5XPXBXfXvXzX-X{.[.].U.T.P.W.L.`.+X:X:X9XuX5X5X7XVXSXDXMXfX:X:XwXdXrXwXfXfXfXBXVX7XuXdXgXVXfXBX",
"fXfXfXfXfXfXfXfXfXfXfXfXfXfXfXfXdXVXVXSXLXLX2XcX+X.X[.[.W.W.L.'.'.}.=XbXdXdXwXwXfXMXSX3XLXSXMXBXDXDXBXBXfXfXBXMXdXrX9XrXrXwXfXMX",
"fXfXfXfXfXfXfXfXfXfXfXfXfXfXfXfXdXVXDXSX3XLX3X2X#X-X}.[.[.W.L.L.T.'.OXcXBXBXbX:XvXMX3XSX3XLXSXSXSXDXBXxXHXHXMXMXdXrX,X,X,XrXdXBX",
"fXfXfXfXfXfXfXfXfXfXfXfXfXfXfXBXBXBXvXvXHXSXHXvXcX>X.X[.[.Q.W.T.^.!.@X4XLXSXyXwXbXbXcXHXMXcXyXfXSXLXxXxXxXHXSXLXcXfX:X,X:X,XVXVX",
"fXfXfXfXfXfXfXfXfXfXfXfXfXfXfXxXHXcXbXwXBXBXrXdXMX:X=XXX[.[.^.T.B.R.{.2XHXBXvXwXwXwXcXBXfXdXwXfXMXHXcXbXvXcX3XLXLXcX:X:X,XrX7X6X",
"fXfXfXfXfXfXfXfXfXfXfXfXfXfXfXfXHXcXfXsX7X7X5X5X5X&X:X1XXX].R.T.R.R.`.OXbXbX,X:XrXdXVXDXgXVXdXdXBXfXwXwXwXvXHXLXLXSXHXwXrXdXVX6X",
"fXfXfXfXfXfXfXfXfXfXfXfXfXfXfXfXxXxXfX7X7X7X5X&X9XrX:X>X.X X~.T.R.I.'.XX-X>X:XwXnXrXuXVXVX7XuXdXBXfXwX,X:XfXBXLXSX3XLXyXrXVX6XDX",
"fXfXfXfXfXfXfXfXfXfXfXfXfXfXfXfXDXxXgXDXDX6X8XIXwXmX-X}.-X.X.X[.W.Q.E.~.-X>XmX>X1X1XoXmXnXuXIXMXDXDXdX%X%XnXBXgXLXJXLXLXMXBXBXVX",
"fXfXfXfXfXfXfXfXfXfXfXfXfXfXfXfXwXfXDXDXMXIXmX|. X(./.E. X~.~.^.M.j.k.l.(.|.#X$X`.U.U.oX:XxXIX2X6XDXPXrX&X&XrXdXMXSXLXHXHXMXfXVX",
"fXfXfXfXfXfXfXfXfXfXfXfXfXfXfX:X1X:XIX@X.X(.y.3.) U  .| 6.k.C.N.;. .F ` <.^.+X$X'.I.U.W.$X>X#XbX3XDXDX7X5X%X&XrXyXcXcXHXHXfXfXfX",
"fXfXfXfXfXfXfXfXfXfXfXfXfXfXfXwX=X;X-X.XV.,.V N ; + % : I | 6.6.F = % % U <.~.}.}.!.!.W.|.Q.K..XvX3XgXdXnX5X&X&X:XwXfXcXHXfXwXwX",
"fXfXfXfXfXfXfXfXfXfXfXfXfXfXfXwX<X;X!.Z.&.&.A.;.j * $ + @ d _ | : X O # : ] y.Q.[.'.'.W.^.d.:.1.~.+X>XcXgXPXnX9X,X:XvXHXyXBXfXwX",
"fXfXfXfXfXfXfXfXfXfXfXfXfXfXfXbX@X[.E.,.:.h.3.N * @ $ $ > 1 M J u . . 3 k ] %.V.~.].'.K.^.M.%./ :.C..X>XMXSXVXuXwXwXcXMXHXBXwX:X",
"fXfXfXfXfXfXfXfXfXfXfXfXfXfXfXcX>X[.j.+.C.D.F > # 5 @ # O 4 # l O . O u G ] %.C.C.(.Q.T.^.C.1.[ / -.C.-XLXSXDXDXBXfXHXLXSXBXfXnX",
"fXfXfXfXfXfXfXfXBXfXfXfXfXwXwX>X+X[.+.5._.-.9 > 1 l 0 + 3 6 X 6 . O O u P | } t.C.R.n.T.T.V.C.5.! ) 6.~.cXDXDXDXBXBXHXMXMXdXdXnX",
"BXBXBXcXcXfXBXBXBXBXfXfXvXbX>X+X}.R.#.v.v.U 1 2 y L h % 0 i 6 4 . o @ l R o.7.>.C.Q.^.K.V.B.!./.9.^ [ k..XcXbXrXnXdXcXcXcXwXVXVX",
"BXBXfXfXBXfXBXBXVXBXBXyXmX>X=X-X~.V.@.b.o.: 1 0 G ..d e y r i 4 o O - l E | 5.>.^.Q.K.d.a.m.U. XZ.&.N *.(.>X1X,X5XdXcXcX:XwX7X7X",
"BXBXvXBXfXfXBXBXVXVXBXfXbX>X-X}.C.t.e.F.E @ < y _ 4.c 1 r y r < X @ u k ] | 6.@.^.Q.a.d.u.m.].{. XA.) Z M.-X:XnX&XnXyXHXyXdXdXuX",
"BXBXfXBXxXyXBXBXVXVXBXyX>X<X=X[.N.$.B.h.d < 3 k 3.8.w 3 r l i # $ @ u P | ;.z.>.J.Q.a.M.t.m.U.=X;X(.-.V ,.(.=XAXdXdXLXLXBXVXuXuX",
"BXBXfXyXfXyXBXfXVXVXdXwXzX:X+X!.x.^ S.-.e , 0 R c.2.e 6 r x r # @ - l P | <.k.q.^.Q.u.k.w.m.'.>X=X.XS.[ [ l.=XAXVXDXSXSXBXdXVXVX",
"BXBXBXxXMXyXfXfXVXBXdXrXzX=XOX!.h.! F._ 0 < d O.c.` y i r l 1 # @ g k R =.z.y.r.J.K.q.u.t.B.'.@X:X>X;Xt.! 2.XXVXDXDXDXVXfXfXBXDX",
"VXBXfXfXfXzXfXfXdXfXsX,XzX<XOXI.k.[ 7.F 0 w _ 8.4.K c i i i < # * g G ] <.N.w.e.J.J.r.g.m.B.{.bXvX,XLX~.T ` ).VXDXDXVXdXnXrXMXSX",
"VXBXBXcXwXfXfXdXdXBXfXrX:X:X=XU.f.%.] : w s 2.b.X.f p a i 7 X 1 0 k H | 1.(.w.e.s.s.e.u.B.P.+XmXbXfX3X;X| ` (.BXSXDXVXdXrXdXSXLX",
"VXVXfXfXfXfXwXfXdXAXnX9XwXmX=XI.@.:.Y g = K S.v.K p x p i 7 @ w h G I *.M. Xr.w.i.i.e.a.T.|.+XvXdX7XDX-X8./ R.:XzXgX7XVXrXrXMXHX",
"VXVXfXfXfXwXfXwXdXfXBXrX,XbX:X`.R.x.J = F 3.v.2.K z x x p q w w g R _ :.E..Xr.r.T.i.p.i.].-X>XcXVXVXPX-XF.$.R.:X:X,XuXuXdXrXMXHX",
"VXVXfXfXyXzXzXfXdXdXnXdXfX:X:X-XXX5.8 ; *.b.3.T L x x z w w s D G ' %.j.}.-Xp.p.i.G.H.'.OX>XmXBXBXuX9X;X Xe.G..X:X:XdXdXfXfXyXBX",
"VXVXfXfXyXfXyXfXDXDXPXVXfXrXbX<XXX@.U ' F.h.X.L L P x h t h j G T } :./.>X:XY.p.0.H.`.OX:XbXcXBXMX7X,X:X;XW.P.;X:X,XrX9XMXMXvXfX",
"VXBXfXfXfXfXyXfXDXBXPXVXBXwXwX<X<XP.u.F.b.*.W L L z h f l j j H _ %.m..XyXIXOXI.H.`.=XvXbXrXVXBXgXDXAXfX:X.X].-XdXVXnX:XHXHXfXwX",
"VXdXwXwXyXvXvXfXBXVXVX7XAXfXfXwX:X>X.X).2.` W E x y f h J j J Y } ,.(.<X4XSX<XOXOX#XvXBXwXrXVXVXgXLXDXgXrX<X+XbXDX6XrXwXHXHXdXdX",
"nXVXwXfXvXvXBXfXMXBX6XVXBXAXBXfX4XmXXXj.` W W P l h j j J J  .{ ,.V.-XcX6X6XDXvXLXcXHXBXnXnXVXDXMXLXDXgX&X,XcX3XDX6XVXfXHXHXdX5X",
"dXdXfXfXfXBXBXBXDXPXPXDXVXBXBXwXcX;XD.} W Q G k g g G J M Y V $.d.}.>X4XSXDXgXMXcXcXMXBXdXuXDXDXLXMXSXBXnX:XIXSXDXDXBXMXHXHXdXnX",
",X:XwXfXDX6X6X7XDXdXAXIXDXDXSXcX;XC.2.T c q w g j j j J F ) $.q.;X:XwXfXBXBXBXfXfXfXBXBXdXdXBXBXBXBXBXfXnXfXxXxXBXBXBXfXfXfXfXfX",
"wXwXwXfXDXDXDXDXfX,XmXwX=X<X;X(.S.2.T 9 e q w g g j D F N [ u.[.>XfXfXfXBXfXfXfXfXfXfXfXfXfXfXfXBXfXfXfXfXfXBXfXsXBXfXfXfXfXfXfX",
"vXwXwXfXdXVXfXwX=X1X-X X_.D.8.9.T T K d f ; ; : s s F U } u.|.#XcXfXfXfXfXfXfXfXfXfXfXfXfXfXfXfXfXfXfXfXfXfXfXfXBXfXfXfXfXfXfXfX",
"cXvXfXfXfXwXfXwXmX}.p.>.+.( A A 8 8 & b b b b b n n ! / t.}.>XIXyXfXfXfXfXfXfXfXfXfXfXfXfXfXfXfXfXfXfXfXfXfXfXfXfXfXfXfXfXfXfXfX",
"fXfXDXBXwXwXbXbXcX].#.^ A       v A S ! ! ! ! ~ B +.j.[.;XmX,X%XfXfXfXfXfXfXfXfXfXfXfXfXfXfXfXfXfXfXfXfXfXfXfXfXfXfXfXfXfXfXfXfX",
"fXMXSXDXwX,XbXcX3X=X0.^ A   v ^ +.5.N.A.N.j.z.j.E. X>XvXrXnX&X&XwXfXfXfXfXfXfXfXfXfXfXfXfXfXfXfXfXfXfXfXfXfXfXfXfXfXfXfXfXfXfXfX",
"cXSXSXSX:X,XbXHX3X2Xi./ m ( n.XXXX.X.X{.XX;X.X;X>XbXvXgXdXnX&X,XwXfXfXfXfXfXfXfXfXfXfXfXfXfXfXfXfXfXfXfXfXfXfXfXfXfXfXfXfXfXfXfX",
"SXSXSXDXwX:XbXxX3X3XOX@.#.Z..XbXvXAXsXtXtX:XzXzXcXxXDXIXBXrX,X,XwXfXfXfXfXfXfXfXfXfXfXfXfXfXfXfXfXfXfXfXfXfXfXfXfXfXfXfXfXfXfXfX",
"JXSXDXVXrX,XrXfXLX3XLXbX>X>X2XLXfXfXMXBXMXMXxXLXHXHXvXcXvXvXcXcXfXfXfXfXfXfXfXfXfXfXfXfXfXfXfXfXfXfXfXfXfXfXfXfXfXfXfXfXfXfXfXfX",
"DXDXDXdXrXrX,XrXSXLXLXLX3XHXHXHXfXfXBXMXSXMXBXxXvXvXcXfXcXfXcXMXfXfXfXfXfXfXfXfXfXfXfXfXfXfXfXfXfXfXfXfXfXfXfXfXfXfXfXfXfXfXfXfX",
"SXgXgXVX9X9X5XdXBXBXBXBXVXVXBXfXwXbXMXBXxXfXwXbXwXwXVXVXDXDXVXVXfXfXfXfXfXfXfXfXfXfXfXfXfXfXfXfXfXfXfXfXfXfXfXfXfXfXfXfXfXfXfXfX",
"MXgXdXVXuXuXdX7XBXfXdXnXrXrXnXdXwXwXfXBXBXBXwX,X:XnXVX6XDXDXVXdXfXfXfXfXfXfXfXfXfXfXfXfXfXfXfXfXfXfXfXfXfXfXfXfXfXfXfXfXfXfXfXfX",
"yXwXfXBXnXVX7XVXBXfX:X1X1X1X5XVXrXrXBXDXDXVXdX5XnX5XuX7X7X7X7X7XfXfXfXfXfXfXfXfXfXfXfXfXfXfXfXfXfXfXfXfXfXfXfXfXfXfXfXfXfXfXfXfX",
"fXyXBXBXdXdXVXVXDXfXwX:X1X&XdX7XrXdXDXDXDXVXdXrXrXnXdX7XVXVX7X7XfXfXfXfXfXfXfXfXfXfXfXfXfXfXfXfXfXfXfXfXfXfXfXfXfXfXfXfXfXfXfXfX",
"HXMXBXdXrXrXfXBXMXLXSXHXfXdXVX7XdXdXBXBXVXVXcXbXcXcXyXMXxXfXbXwXfXfXfXfXfXfXfXfXfXfXfXfXfXfXfXfXfXfXfXfXfXfXfXfXfXfXfXfXfXfXfXfX",
"LXMXfXfXwX:XfXBXMXLX3XLXSXSXSXVXVXfXfXfXvXyXcXbXLXLXKXHXcXbX:X:XwXfXfXfXfXfXfXfXfXfXfXfXfXfXfXfXfXfXfXfXfXfXfXfXfXfXfXfXfXfXfXfX"
};
