/* XPM */
static char *_0906_2682c4eb79c560977b1d6fd63151f6ea576a699b23c23a7432b7941731d6dc86[] = {
/* columns rows colors chars-per-pixel */
"64 64 235 2 ",
"   c #3E2008",
".  c #3E2F26",
"X  c #452404",
"o  c #44240B",
"O  c #4A2608",
"+  c #5E2D0F",
"@  c #4D2D18",
"#  c #552E16",
"$  c #4C331C",
"%  c #553316",
"&  c #5B361B",
"*  c #5D3B1D",
"=  c #56361A",
"-  c #5D330B",
";  c #623818",
":  c #703E09",
">  c #4B2E25",
",  c #4D3324",
"<  c #4E3825",
"1  c #44342B",
"2  c #4E362B",
"3  c #46382F",
"4  c #4E382B",
"5  c #453221",
"6  c #523525",
"7  c #5B3522",
"8  c #533925",
"9  c #5A3B23",
"0  c #52362A",
"q  c #53392C",
"w  c #5B3A2C",
"e  c #58362C",
"r  c #473831",
"t  c #4C3B33",
"y  c #4A3730",
"u  c #533B32",
"i  c #5B3B33",
"p  c #503730",
"a  c #542E21",
"s  c #623C25",
"d  c #613623",
"f  c #6F431F",
"g  c #5A422E",
"h  c #55433A",
"j  c #5A433A",
"k  c #4F423A",
"l  c #6B492B",
"z  c #654126",
"x  c #784C2C",
"c  c #6D503E",
"v  c #785537",
"b  c #684C37",
"n  c #5A4C44",
"m  c #62534B",
"M  c #6C554D",
"N  c #745A46",
"B  c #69564F",
"V  c #6C625A",
"C  c #787069",
"Z  c #895D2F",
"A  c #8D633A",
"S  c #91613B",
"D  c #ED6C11",
"F  c #F4741A",
"G  c #D37C38",
"H  c #E6752A",
"J  c #E77928",
"K  c #F67F21",
"L  c #F17A34",
"P  c #ED7930",
"I  c #895B41",
"U  c #8A6645",
"Y  c #946846",
"T  c #9B6E54",
"R  c #9A7353",
"E  c #927353",
"W  c #AE7B50",
"Q  c #82736C",
"!  c #9A7D67",
"~  c #887C75",
"^  c #836C64",
"/  c #F38D13",
"(  c #FB8E1F",
")  c #F18C18",
"_  c #F99214",
"`  c #F5951D",
"'  c #F9931C",
"]  c #F3981B",
"[  c #F79719",
"{  c #F48E0E",
"}  c #DF953E",
"|  c #F38928",
" . c #EC9321",
".. c #ED962B",
"X. c #F39522",
"o. c #F99222",
"O. c #F59329",
"+. c #F2992C",
"@. c #FA992A",
"#. c #FB9525",
"$. c #EB9736",
"%. c #E6963B",
"&. c #E9983A",
"*. c #F49638",
"=. c #E68326",
"-. c #A7845F",
";. c #AB8868",
":. c #B58C6D",
">. c #BA916B",
",. c #BD9773",
"<. c #B98B71",
"1. c #DB9A4C",
"2. c #D8974A",
"3. c #D79853",
"4. c #D39B5C",
"5. c #D99C5B",
"6. c #DA935D",
"7. c #D3894E",
"8. c #E79941",
"9. c #E49650",
"0. c #E38E4D",
"q. c #CE9F69",
"w. c #C6966F",
"e. c #D59A66",
"r. c #CA9C77",
"t. c #CFA167",
"y. c #DFAD70",
"u. c #D8AB75",
"i. c #E4A46F",
"p. c #E7A87B",
"a. c #E9B27C",
"s. c #EAB277",
"d. c #FFB577",
"f. c #958983",
"g. c #998985",
"h. c #8C8783",
"j. c #A2908C",
"k. c #A59993",
"l. c #BC9C83",
"z. c #ABA09C",
"x. c #B6A69A",
"c. c #B7ABA5",
"v. c #C9A787",
"b. c #D2AF8F",
"n. c #DAB18B",
"m. c #D7B088",
"M. c #CDB49C",
"N. c #DDB594",
"B. c #D2B69D",
"V. c #D6B99C",
"C. c #DBB995",
"Z. c #CEAE92",
"A. c #E4BA8D",
"S. c #EAB789",
"D. c #F4BE8E",
"F. c #FBBE89",
"G. c #E4BC94",
"H. c #ECBD93",
"J. c #E2BC9C",
"K. c #E8BD9B",
"L. c #E1B596",
"P. c #F3BD92",
"I. c #CAB8A7",
"U. c #D9BCA2",
"Y. c #D5BAA5",
"T. c #C2BAB8",
"R. c #F4C58F",
"E. c #FCC58D",
"W. c #FDC78C",
"Q. c #EDC293",
"!. c #ECC39B",
"~. c #EEC99E",
"^. c #E5C29D",
"/. c #F5C294",
"(. c #FBC594",
"). c #F6C995",
"_. c #FDCB95",
"`. c #F3C49B",
"'. c #FBC699",
"]. c #F5CB9C",
"[. c #FDCC9B",
"{. c #FFD096",
"}. c #FED19C",
"|. c #DDC4AB",
" X c #DEC1A3",
".X c #CDC4BD",
"XX c #DDC7B6",
"oX c #E4C2A4",
"OX c #EECAA3",
"+X c #E2C3AB",
"@X c #ECCDAC",
"#X c #EEC3A0",
"$X c #F3C6A5",
"%X c #FFC5A3",
"&X c #F4CCA3",
"*X c #FBCDA2",
"=X c #F4CDA9",
"-X c #FBCDA9",
";X c #EED1AE",
":X c #F5D1A3",
">X c #FDD2A3",
",X c #F3D1AB",
"<X c #FCD2AB",
"1X c #FFD9A9",
"2X c #E1C7B1",
"3X c #E1CAB4",
"4X c #F1CFB0",
"5X c #FBCFB4",
"6X c #FCD3B1",
"7X c #FAD8B5",
"8X c #D6CDC9",
"9X c #DED5D0",
"0X c #E6D4C6",
"qX c #F3DAC7",
"wX c #E5DAD4",
"eX c #E7D9D2",
"rX c #FCE6C7",
"tX c #EEE1D3",
"yX c #FEEBDB",
"uX c #F6E5D5",
"iX c #FFF6DD",
"pX c #FFF9DD",
"aX c #FFFAD6",
"sX c #FFF5E6",
"dX c #FFFAE4",
"fX c #FDF5EC",
"gX c #FFFBEC",
"hX c #F7F2ED",
"jX c #FDF6F3",
"kX c #F4FAF4",
"lX c #FFFCF5",
"zX c #F6FFFE",
"xX c #FEFEFE",
"cX c #F5F4F2",
"vX c #F9EEEA",
/* pixels */
"xXxXxXxXxXxXxXxXxXxXxXxXxXzXxXxXxXkXxXxXxXlXxXjXlXeXI.;.^ M j u u j n V ! x.0XjXlXxXxXxXxXxXzXzXxXxXxXxXxXzXxXxXxXxXxXxXxXxXxXxX",
"xXxXxXxXxXlXlXxXxXxXzXxXxXxXxXcXxXxXxXlXlXxX8Xf.m h r . 3 4 0 u 4 2 p 2 y y i m k.hXlXxXxXcXxXzXxXxXxXxXxXxXxXxXxXxXxXxXxXxXxXxX",
"xXxXxXxXxXxXxXxXxXzXxXzXxXzXxXxXjXxXxXhXc.B r 3 p 3 r y q 2 0 2 4 2 0 q u 2 y t t n g.jXxXxXjXxXxXxXxXxXxXxXxXxXxXxXxXxXxXxXxXxX",
"xXxXxXxXxXxXxXxXxXxXxXxXxXjXxXvXlXlXz.n 1 1 r t y p p u q 0 0 q u q 2 4 0 2 2 p 4 3 t m 8XjXxXxXxXxXxXxXkXxXxXxXxXxXxXxXxXxXxXxX",
"xXxXxXxXxXxXxXxXxXxXxXxXjXxXlXlXtXC 4 u 4 2 u 2 0 0 0 0 6 6 6 0 8 , 4 0 q q 0 4 2 4 4 r y k.xXjXcXxXxXxXlXxXxXxXxXxXxXxXxXxXxXxX",
"xXxXxXxXxXxXxXxXxXxXxXcXxXxXlXeXn 2 q u 2 2 > q q 0 6 0 6 0 8 q 8 q q q 0 0 0 0 , 4 u t 4 p g.xXjXxXxXxXxXxXxXxXxXxXxXxXxXxXxXzX",
"xXxXxXxXxXxXxXxXxXxXxXxXxXlXwXn 4 4 2 2 2 0 e 0 0 e 6 6 6 6 6 6 , 4 8 , , 6 8 8 0 0 , 2 2 u 5 Q eXjXxXlXxXxXxXxXxXxXxXxXxXxXxXxX",
"xXxXxXxXxXxXxXxXxXxXxXxXlXlXm r 2 q 6 0 0 0 q 0 0 0 6 0 0 0 0 0 < 0 q 0 0 6 0 6 0 , q 2 4 , i 3 t c.jXxXlXxXxXxXxXxXxXxXxXxXxXzX",
"xXxXxXxXxXxXxXxXxXxXxXjXxXg.y 2 q 0 0 0 0 0 0 0 0 0 0 0 0 0 0 4 4 4 4 0 0 8 4 0 0 0 0 0 2 0 0 p t 1 z.lXlXxXxXxXxXxXxXxXxXxXxXxX",
"xXxXxXxXxXxXxXxXxXxXxXxXwXh y 2 2 0 0 0 0 0 0 0 0 0 0 0 0 0 4 4 4 4 4 4 4 4 0 0 0 4 0 0 0 0 p 2 1 h 3 .XlXxXkXxXxXxXxXxXxXxXxXxX",
"xXxXxXxXxXxXxXxXxXxXjXxXg.. u 2 2 4 0 0 0 0 p 2 0 0 0 4 4 4 0 4 4 < 4 4 2 0 4 4 2 4 4 q 0 p 0 2 4 4 5 m lXjXxXxXxXxXxXxXxXxXxXxX",
"xXxXxXxXxXxXxXxXzXxXxXjXn t q 0 0 4 2 4 0 0 0 0 0 0 2 4 0 4 2 4 4 4 4 4 4 0 4 4 2 2 0 0 0 0 0 q 2 2 h 1 c.xXjXxXxXxXxXxXxXxXxXxX",
"xXxXxXxXxXxXxXxXxXjXxX9Xt q 2 6 0 4 4 4 0 2 0 q q 0 q 2 0 0 2 4 0 4 0 0 0 0 0 0 q 0 0 0 0 0 0 0 q , 2 4 C xXxXlXxXxXxXxXxXxXxXxX",
"xXxXxXxXxXxXxXxXxXxXxXc.r 2 0 6 4 4 2 0 2 0 0 0 2 0 0 0 0 0 0 0 0 0 0 q 0 0 0 0 0 0 0 0 0 0 0 6 q e > h h hXxXxXxXxXxXxXxXxXxXxX",
"xXxXxXxXxXxXxXxXxXxXjXf.1 u q 8 4 < 2 4 4 0 0 0 0 0 0 0 6 0 6 0 6 6 0 6 0 8 0 0 0 0 0 0 0 8 0 0 6 0 q 1 . 8XjXxXxXxXxXxXxXxXxXxX",
"xXxXxXxXxXxXxXxXxXxXxXQ 1 i , 6 0 4 4 8 4 0 0 0 0 0 0 6 0 0 0 0 0 0 e 0 0 0 0 0 0 0 0 0 0 0 0 0 q 6 0 4 y c.xXxXxXxXxXxXxXxXxXxX",
"xXxXxXxXxXzXxXxXxXlXlXV q 0 2 p u 6 $ 8 < < , 0 e p e a e e 2 6 e e 6 2 u u 4 2 2 2 6 0 > i 0 0 0 p 6 8 y j.xXxXxXxXxXxXxXxXxXxX",
"xXxXlXxXzXxXxXxXlXlXxXV q , p t 2 0 g $ $ g 0 2 p i > e e 0 2 w > e w 6 6 q $ w N 7 w 6 e e 2 u 2 2 $ 6 y g.jXxXxXzXxXxXxXlXxXxX",
"xXxXxXxXxXxXxXxXlXxXzXV 4 , 4 p u 2 > 8 8 , , 2 u p , , 6 0 q 0 0 6 $ 8 d v ;.n.*X>.% = $ 2 r r t 0 8 $ t f.xXxXxXxXxXxXlXxXxXxX",
"xXxXxXxXxXxXxXxXlXxXxXV 4 < q 2 > i , 8 $ 8 b N s 8 s % 7 % 6 b N E :.v.!.].[.[.'.*X>.* 8 , k . 4 6 8 , r ;.xXxXxXxXxXxXlXlXxXxX",
"xXxXlXxXxXxXxXxXxXxXxXC 4 0 0 6 a 7 s ;.C.~.:X:X<X&X].Q.Q.&X<X=X=X&X<X].>X[.`.>X>X].~.;.* $ g $ 0 8 8 < t g.xXxXxXxXxXxXxXlXxXxX",
"xXxXxXxXxXxXxXxXxXxXxXC 3 0 6 7 d T $X&X].].~.:X`.[.R.}.[.].*X].[.[.[.*X].].1XQ.&X&X,X;Xl.l $ g 8 2 q 4 t z.xXxXxXxXxXxXlXlXxXxX",
"xXxXxXlXxXxXxXxXxXzXzX~ 3 < 6 s T <X#X-XL.U l z I L.7XQ.[.}.].[.(.}.(.[.'.1Xm.A f l U v.6X&XR ; 6 0 0 4 r T.xXxXxXxXxXlXxXxXxXzX",
"xXxXxXxXxXxXxXxXzXxXxXh.4 q 6 l &X*X>XA.; & & ; ; ; `.>X[.).}._._.(._.[.[.~.* - = = = z J.*X<XY = 0 < 4 r 8XxXxXxXxXlXxXlXxXxXzX",
"xXxXxXxXxXxXxXxXxXzXjXk.1 , s <.[.(.}.u.A ,.N.V.<.S H._._.{._._.[.[.[.*X'.H.S >.L.N.:.U A.-X%XL.9 0 , q u fXxXxXxXxXxXlXxXxXxXzX",
"xXxXxXxXxXxXxXxXxXxXjXI.2 w @ K.*X}.R.}.>X].-X$X6X`.[._.(._._.}.].*X[.*X[.>X/.%X<X!.<X-X*X`.*X<Xc q q 2 V jXjXxXxXxXxXxXxXxXzXzX",
"xXxXxXxXxXxXxXxXxXlXhXx.q 6 7 5X*XP.>X}.[.].*X-X'.}.(._.[.*X%X-X*X>X].).[.[.>X[.*X<X&X].*X*X[.*X! 6 6 $ ! sXxXxXxXxXxXxXxXzXzXzX",
"xXxXxXxXxXxXxXxXjXgXY.B.6 $ z $X%X*X[.}.*X*XK.`.*X>X[.[.'.'.%X-X*X*X].[.[._.(.].H.Q.:X].].[._.].:.9 & 6 l.Y.gXxXxXxXxXxXxXxXxXxX",
"xXxXxXxXxXxXxXlXgX|.oXJ.* 9 @ =X>X).}.~.:Xb.E X :.OX].).).}.>X-X]._.{.[._.].>XG.;.X E 1X].[.W.[.b.$ s ; K.+XXXjXxXxXxXxXxXxXxXxX",
"lXxXzXxXxXxXxXlXgXV.!.!.v % & OX*X}.).:X,XU ;.o # =X:X>X].}.[.`.[.}.}.(.[.'.<XY ,.O X C.&X[.}.[.J.& + I H.K.U.jXxXxXzXxXxXxXxXxX",
"lXxXxXzXxXxXxXlXdX^.Q.Q.Y * * &X).}.].&X,X= O O O OX]._.).{.}.}.[._._.[.*X*X&Xv o   o V.<X].'.[.-X; + w.S.'.oXsXxXxXxXxXxXxXlXlX",
"lXxXzXzXxXxXlXlXpXoXH.D.w.- - >X[.[.}.].<X;.X X R <X}.].}.{._._.}.[.[.*X].-X=Xr.O   U =X=X*X'.*X%XZ s P./.H.oXgXxXxXxXxXxXxXxXlX",
"xXxXxXxXxXxXxXgXdX+XL.`.s.f Z _.[.[.[.[.].).S.m.=X*X*X*X[._._._._._.[.[.*X%X*X-XG.S.Q.}.].[.>X'._.W 7.F.`.K.+XsXlXxXxXxXxXxXxXzX",
"xXxXxXxXxXxXlXlXsXY.J.`.R.y.i._.[.[._._.}._._._.*X*X*X*X[._._._._._.[.[.*X*X*X&X].(._._._.[.[._._.W.E./.H.oXM.fXlXlXxXxXxXxXxXxX",
"xXxXxXzXxXxXxXlXgXuX+XJ.Q.].].).[.[.[.[._.[.*X*X].*X*X].[._.'._._._._.[.*X*X].].>X[.[.[._.'.[.[.(.>XP.!.^.+XqXjXxXlXxXxXxXxXzXxX",
"xXxXxXxXxXxXxXxXlXgX3X|.+XC.^.*X[.[.[.[.[.[.[.*X}.].}.].[.}.[.[._.[.[.}.].}.[.[.[.].[.[.[.[.[.[.*X!.N.oX2XXXlXjXxXxXxXxXxXxXxXxX",
"xXxXxXxXxXxXzXxXlXlXjXuXY.I.U.4X]._.[.[.*X[.[.[.[.}.].}.].}.*X*X*X[.[.[.}.].}.[.[.[.*X*X].}.).].@XU.B.Y.yXlXxXxXxXxXxXxXxXxXxXxX",
"xXxXxXxXzXxXxXxXxXlXxXxXfXjXfX+X:X}.[.[.[.*X*X[.[._.{.).'.(./.'.`.'.'.)._._.{.[.[.[.*X[.[.}.}.:X|.sXgXfXjXxXjXxXxXxXxXxXxXxXxXlX",
"lXxXxXxXxXzXzXxXxXxXjXjXlXlXxXI.,X}.].[.[.[.[._._.[._._.'.'././.P./.(._.]._._.[._.[.].[.[.}.}.,XI.lXlXxXkXxXxXxXxXxXxXxXxXxXxXlX",
"xXxXxXxXxXxXxXxXxXxXxXxXxXxXxXtX@X&X}.[.[.[._.[._._._.[.[.[.[.[.*X[.[.}.[.{._._._.}.[.'.}.].].;XtXxXxXxXxXxXxXxXxXxXxXxXxXxXxXxX",
"xXxXxXxXxXxXxXxXxXzXxXxXxXxXxXlXV.,X].*X}.(._.{._._.[.'.'.[.[._.'.[._._.[.[.[._._._._.}.}.].=XB.lXxXxXxXxXxXxXxXxXxXxXxXxXxXxXxX",
"xXxXxXxXxXxXxXxXxXxXxXxXxXxXxXlXqX=X=X:X).}._.W.(.[.[./.(.(._._._._.(.(./.'._.(.W._.{.).&X,X4XqXlXxXxXxXxXxXxXxXxXxXxXxXxXxXxXxX",
"xXxXxXxXxXxXxXxXxXxXxXxXxXxXxXlXgXU.4XOX1X).R.}.[.[.[.P.S.a.s.s.s.a.a.S.D.[.[.[.}.R.).1XOX;X|.fXxXxXxXxXxXxXxXxXxXxXxXxXxXxXxXxX",
"xXxXxXxXxXxXxXxXxXzXxXxXxXxXxXxXjXsX|.;X~.1X)._.'.[.[.[.'.(.W.W.W.W.(.'.[.*X[._.{.).>X~.@X|.sXgXlXxXxXxXxXxXxXxXxXxXxXxXxXxXxXxX",
"xXxXxXxXxXxXxXjXxXlXzXkXxXxXxXxXlXlXuX2X;X:X].].[.}.[.[.[._._.(.(._._.[.[.[.[.'.].}.&X;XXXuXjXxXxXxXxXxXxXxXxXxXxXxXxXxXxXxXxXxX",
"xXxXxXxXxXxXxXxXxXxXxXxXxXxXxXxXlXxXgXuX|.@X,X>X]._.[._.[.[.[.[.[.[.[.[.[.[.[.].<X,X@X|.uXlXxXkXxXxXxXxXxXxXxXxXxXxXxXxXxXxXxXxX",
"xXxXxXxXxXxXxXxXxXlXxXxXxXxXxXxXxXxXxXjXiXB.7X~.>X].}._.[.[.'.'.[.'.[.[._._.].}.~.7XB.yXgXlXxXzXxXxXxXxXxXxXxXxXxXxXxXxXxXxXxXxX",
"xXxXxXxXxXlXxXxXxXxXxXxXxXxXxXxXxXzXxXkXlXgX|. X@X:X:X].[.[.[.*X[.*X[.[.].>X:X;X XXXgXlXlXxXxXxXxXxXxXxXxXxXxXxXxXxXxXxXxXxXxXxX",
"lXlXxXxXxXxXxXxXlXxXxXxXxXxXxXxXxXxXxXxXxXjXlXgX0XM.@XOX*X*X'.[._.'.[.>XOX;XM.0XlXlXjXxXxXxXxXxXxXxXxXxXxXxXxXxXlXxXxXxXxXxXlXlX",
"lXxXxXxXxXxXxXlXlXlXxXxXxXxXxXxXxXxXxXxXxXxXxXxXlXgXdXU.oX'.'.F.F.'.'.G.V.dXgXjXxXxXxXxXjXxXxXxXxXxXxXxXxXxXxXlXxXxXxXxXxXxXlXlX",
"xXxXxXxXzXxXxXxXxXxXxXxXxXxXxXxXxXzXkXxXjXkXcXxXxXlXgXM.=X]._.E.F.F.H.^.v.gXlXlXlXkXxXkXxXzXkXxXlXxXxXxXxXxXxXxXxXxXzXxXxXxXxXlX",
"xXxXxXzXzXzXzXxXxXxXxXxXxXxXlXlXkXzXzXzXxXzXxXlXsXdXpXb.&X*X[.E._.[.[.&XV.pXgXgXlXlXxXzXzXzXzXkXlXlXxXxXxXxXxXxXxXxXzXzXzXxXxXxX",
"xXxXzXzXzXzXxXxXxXxXxXxXxXxXxXxXxXxXxXzXxXxXjXjXaX*Xa.i.(.[.'.[.}.(._._.i.p./.iXgXjXxXxXzXxXxXlXxXxXxXxXxXxXxXxXxXzXzXzXzXzXxXxX",
"xXxXzXzXzXzXxXxXxXxXxXxXxXxXxXxXxXlXlXlXgXyXL.q.6.7.G G 0.d.E.'._.W.d.9.G G 0.e.r.J.yXjXlXxXjXxXxXxXxXxXzXxXxXxXxXxXzXzXzXxXxXxX",
"xXxXxXxXxXxXxXxXxXxXxXzXzXxXxXxXjXlXpX!.4.1.&.$.*.O.=.J J H H L L P P J H J | *.*.8.9.4.Q.pXjXjXxXxXxXxXzXzXxXxXxXxXxXxXxXxXxXxX",
"jXxXxXxXxXxXxXxXxXxXkXzXxXxXxXjXpXG.t.2.&.+./ [ / ' O.| ) F D F F D F K | #.@.( ' ) +.&.2.e.G.dXjXlXxXkXzXxXxXxXxXxXxXxXxXlXxXxX",
"lXlXxXxXxXxXxXlXlXxXzXkXlXgXpXQ.1.%.$...X.` [ [ [ ` ' ` ( o.( ( ( ( o.o.X.` ` ` [ ] X. ...$.%.1./.aXgXlXkXzXxXxXxXxXxXxXxXxXlXjX",
"gXlXxXxXxXxXxXlXlXcXxXxXdXrXt.2.+.' ( ` ` ` ` ] ` [ [ ' ' ` ' o.` ` ` ( ` ` X.]  .` ` ` ` ` ' ..2.t.rXsXxXlXkXxXlXxXxXxXxXxXlXgX",
"xXxXxXxXxXxXxXzXzXxXlXsX!.4.8...` ` ` ] X.X.X.X.` ' ` ' o.o.O.o.| O.o.o.' ' ' X.X.X.X.X.X.' [ ' ..8.4.!.dXlXxXkXxXxXxXxXxXxXxXlX",
"xXxXxXxXxXxXzXzXzXfXpXG.5.&.+.[ ' [ `  . . . .X.` ' ( ( o.o.| X.O.o.o.o.o.' o.' X.O.X.X.X.' ' ' [ X.%.5.G.dXhXxXzXzXxXxXxXxXxXxX",
"xXxXxXxXxXxXzXzXxXgXA.3.%.@.` { ` ` ` X.X.X.o.' ( ( ' ' ' ` ` ] ] ] [ ` ' ' ' ' o.X.X.X.`  .[ [ { [ @.%.3.A.gXxXxXzXxXxXxXxXxXxX",
"xXxXxXxXxXxXxXxXgX7X4.%.X.' _ #.` X.X.X.X.` o.' ' ' ' ' ' [ [ ] / ] ] [ ' ' ' ' o.' o.` X.` ` ` [ [ [ X.%.5.7XlXxXzXxXxXxXxXxXxX",
"xXxXxXxXxXxXxXlXpXt.%.+.[ ' X. .o.X.o.X.' ` ` ' ' ` ' ` o.` ` ' [ [ [ ` X.` ` ' ' [ ' [ ` ` ` X. .` [ ' +.} t.dXxXxXxXxXxXxXxXxX",
"xXxXxXxXxXxXxXlXaX4.&.' _ `  .+.X.X.o.' ' _ [ [ ` X.X.X.X.o.o.' ( ` o.X.X.` X.X.' ' _ ' ' o.o.X.+. .[ _ ` $.4.aXjXxXxXxXxXxXxXxX"
};
