/* XPM */
static char *a4d65fe39dd547d4d36654ce6d4261232HFpBicbgVWRBId6[] = {
/* columns rows colors chars-per-pixel */
"64 66 210 2 ",
"   c #010104",
".  c #0B0101",
"X  c #0B0A03",
"o  c #010109",
"O  c #0B0509",
"+  c #04090B",
"@  c #0B0B0B",
"#  c #050B01",
"$  c #140000",
"%  c #1B0000",
"&  c #130B02",
"*  c #1E0E08",
"=  c #0F110C",
"-  c #16120B",
";  c #000212",
":  c #010812",
">  c #121113",
",  c #171818",
"<  c #240000",
"1  c #2B0000",
"2  c #230C00",
"3  c #2D0C00",
"4  c #340000",
"5  c #3D0201",
"6  c #300C00",
"7  c #251200",
"8  c #281307",
"9  c #3D1900",
"0  c #28211F",
"q  c #1E1C21",
"w  c #1F2024",
"e  c #212123",
"r  c #2E2623",
"t  c #2B2C2B",
"y  c #332423",
"u  c #392922",
"i  c #38332E",
"p  c gray20",
"a  c #3B393B",
"s  c #3E3432",
"d  c #440000",
"f  c #4C0402",
"g  c #42090A",
"h  c #550101",
"j  c #5B0000",
"k  c #510408",
"l  c #590607",
"z  c #461B00",
"x  c #620202",
"c  c #65090B",
"v  c #6B0C0C",
"b  c #6A0407",
"n  c #770101",
"m  c #7A110C",
"M  c #760F10",
"N  c #7E0F16",
"B  c #761213",
"V  c #7A1213",
"C  c #621618",
"Z  c #4D2804",
"A  c #723C14",
"S  c #45392D",
"D  c #443D3C",
"F  c #4A3D3C",
"G  c #453A34",
"H  c #5E411F",
"J  c #76410F",
"K  c #744114",
"L  c #764419",
"P  c #6A4115",
"I  c #44423D",
"U  c #4B4136",
"Y  c #674422",
"T  c #473E41",
"R  c #444341",
"E  c #4B4A46",
"W  c #454E49",
"Q  c #4C4C4B",
"!  c #494649",
"~  c #514B4C",
"^  c #524A47",
"/  c #4A534D",
"(  c #4E4B50",
")  c #514A50",
"_  c #4F5255",
"`  c #4B5A53",
"'  c #545256",
"]  c #5A585A",
"[  c #635D5F",
"{  c #62625E",
"}  c #636464",
"|  c #6D6565",
" . c #6A6B65",
".. c #6E6568",
"X. c #6B696B",
"o. c #666B67",
"O. c #736465",
"+. c #756266",
"@. c #6F7072",
"#. c #727272",
"$. c #840C0C",
"%. c #8B0B0C",
"&. c #8D0906",
"*. c #920202",
"=. c #9E0506",
"-. c #950C06",
";. c #990A06",
":. c #94060C",
">. c #9D050B",
",. c #950D0B",
"<. c #9A0C0B",
"1. c #8A110E",
"2. c #94100C",
"3. c #9B110C",
"4. c #961006",
"5. c #8D0B11",
"6. c #8F0711",
"7. c #940D13",
"8. c #9B0C12",
"9. c #9A0510",
"0. c #8B1213",
"q. c #961114",
"w. c #9C1011",
"e. c #A50505",
"r. c #AD0303",
"t. c #A3060A",
"y. c #AB0409",
"u. c #A20A0C",
"i. c #A80B08",
"p. c #B30102",
"a. c #BA0002",
"s. c #B30209",
"d. c #BA020A",
"f. c #B20808",
"g. c #AA0613",
"h. c #A30812",
"j. c #BE0311",
"k. c #A31112",
"l. c #813F0D",
"z. c #B65704",
"x. c #B25905",
"c. c #BC5B03",
"v. c #B45B0A",
"b. c #BA5D0B",
"n. c #BA5706",
"m. c #A95C13",
"M. c #A45E1E",
"N. c #A75714",
"B. c #B65E10",
"V. c #BA5F10",
"C. c #AD5606",
"Z. c #B8610C",
"A. c #A7651F",
"S. c #AB601D",
"D. c #B46216",
"F. c #BC6318",
"G. c #A35E23",
"H. c #9A6229",
"J. c #946638",
"K. c #A46424",
"L. c #A96426",
"P. c #C15C02",
"I. c #C05C0B",
"U. c #837B7B",
"Y. c #85817E",
"T. c #8C7F83",
"R. c #867D82",
"E. c #868385",
"W. c #888284",
"Q. c #8A898D",
"!. c #898689",
"~. c #908F94",
"^. c #9C9B9C",
"/. c #939594",
"(. c #A29D97",
"). c #A7A59F",
"_. c #9C9CA2",
"`. c #9DA0A7",
"'. c #ADADAC",
"]. c #A6A6A7",
"[. c #AFB4B4",
"{. c #BCB7B5",
"}. c #BBBBB4",
"|. c #BDBBBA",
" X c #B4B6B6",
".X c #B3ACA5",
"XX c #C1BAB7",
"oX c #BDC1BA",
"OX c #C0C2BF",
"+X c #BCBDC0",
"@X c #C8C8C9",
"#X c #D1D0CC",
"$X c #D7C9D0",
"%X c #D2D1D2",
"&X c #DADADA",
"*X c #D9D0D5",
"=X c #D5C8CF",
"-X c #DDDCE1",
";X c #DFE0E5",
":X c #E5E4E5",
">X c #EBEBEB",
",X c #FFFFED",
"<X c #F5F5F5",
"1X c #FEFCF5",
"2X c #F5F6F9",
"3X c #FBF7FA",
"4X c #F6FEFE",
"5X c #FEFEFE",
"6X c #FAF6F6",
"7X c #EAEFF2",
/* pixels */
"5X5X4X5X3X5X3X5X5X5X4X5X5X1X5X5X5X4X4X4X1X,X1X1X5X5X5X1X1X1X X+ @.2X5X5X3X5X5X5X5X5X5X5X5X5X5X1X5X5X5X5X5X5X5X5X5X5X5X5X5X5X5X5X",
"5X5X4X4X5X5X5X5X5X@XR I S G F D T R I I U U G .X5X5X2X5X1X).@ +   #.4X1X5X5X5X5X5X5X5X5X5X5X5X5X5X5X5X5X5X5X5X5X5X5X5X5X5X5X5X5X",
"5X5X5X4X5X5X5X5X1X{.  . $ % % % % % $ $ . $ . !.5X4X5X5X.X@ o o     X.4X5X5X5X5X5X5X5X5X5X5X5X5X5X5X5X5X5X5X5X5X5X5X5X5X5X5X5X5X",
"1X5X5X5X5X5X5X5X5X}.  * Y K A K l.J K L Y 2 . Q.4X4X4X'.X   + o O      .2X5X5X5X5X5X5X5X5X5X5X5X5X5X5X5X5X5X5X5X5X5X5X5X5X5X5X5X",
"1X5X5X5X5X5X5X4X5X{.. 2 J.L.G.S.m.m.M.L.J.9 $ Q.4X4X'.#     o           } 2X5X4X5X5X5X5X5X5X5X5X5X5X5X5X5X5X5X5X5X5X5X5X5X5X5X5X",
"5X1X1X5X5X5X4X4X4X|.. 3 H.D.C.b.Z.F.b.m.K.Z . Q.5X].=     #               ] 3X5X5X5X5X5X5X5X5X5X5X5X5X5X5X5X5X5X5X5X5X5X5X5X5X5X",
"5X5X5X5X5X5X5X5X5X|.. 3 M.Z.c.P.z.c.z.Z.L.z . Q.].+   .     . .     o       ' 2X5X5X5X5X5X5X5X5X5X5X5X5X5X5X5X5X5X5X5X5X5X5X5X5X",
"5X5X5X1X5X5X5X4X5X}.$ 6 S.z.P.P.I.P.Z.x.L.z $ D @ O . .               O       ' 2X5X5X5X5X5X5X5X5X5X5X5X5X5X5X5X5X5X5X5X5X5X5X5X",
"5X5X5X1X5X5X5X5X5XXX. 6 L.c.c.P.c.I.P.x.K.9 $ .     .       .       o     o     ! 2X5X5X5X5X5X5X5X5X5X5X5X5X5X5X5X5X5X5X5X5X5X5X",
"5X5X5X5X5X5X5X1X1XXX. 3 M.z.c.c.I.c.b.m.H.Z .   o o   o   o   o     o             R >X5X5X5X5X5X5X5X5X5X5X5X5X5X5X5X5X5X5X5X5X5X",
"5X5X5X5X5X5X5X1X1XXX. 3 K.v.b.c.P.z.Z.M.K % . o o ;     o o o o o   o     o o     o a >X5X5X2X5X5X5X5X5X5X5X5X5X5X5X5X5X5X5X5X5X",
"4X5X5X5X5X5X5X1X1XXX. 2 K.v.b.b.z.D.M.K % . + o ; o o + + o ; o o o o o   o     +   + p >X2X5X5X5X5X5X5X5X5X5X5X5X5X5X5X5X5X5X5X",
"4X5X5X5X5X5X5X5X1X}.  3 K.v.v.B.D.M.J < . . o ; o o o + o o o o o o o o                 a >X5X1X5X5X5X5X5X5X5X5X5X5X5X5X5X5X5X5X",
"5X5X1X1X5X5X5X5X1X}.  7 G.x.B.V.G.A % .   O     o ; o o     o o o o o o o o o   o o       i :X5X5X5X5X5X5X5X5X5X5X5X5X5X5X5X5X5X",
"5X5X1X1X5X5X5X5X1X}.  7 K.V.V.N.A % .   +   . . O o o o     .   o o o   o o   o o     o     p :X4X5X5X5X5X5X5X5X5X5X5X5X5X5X5X5X",
"5X1X1X5X5X5X5X5X1XoX  2 K.B.N.l.% .   o +   . . O o o o         o o o o o o                   t :X2X5X5X5X5X5X5X5X5X5X5X5X5X5X5X",
"1X5X1X4X5X4X5X1X5X|.  7 H.H.L % .     o     o       o   o       o     o       o     o           t ;X1X2X5X5X5X5X5X5X5X4X5X5X5X5X",
"5X5X4X4X4X5X5X1X5X+X  7 J.P % $ .   o   o       o   o   o   o       o   o o     o o     o o     . 0 &X5X4X5X1X5X5X5X5X5X5X5X5X5X",
"5X3X5X5X5X5X1X6X5X|.@ & H % $ .     o     o o   o     o     o o   o o     o   o   o   o   o o       e &X5X5X5X4X5X5X5X5X5X5X5X5X",
"5X3X5X5X4X5X5X1X5X[.  X & . .         o     o     o       o     o     o       o       o               , %X5X3X5X5X5X5X5X4X5X5X5X",
"5X5X5X6X5X5X5X5X5X@X    . .     o     o o     o     o     o         o     o     o o   o o     o   X     , %X5X5X4X5X5X5X1X5X5X5X",
"5X5X5X5X5X4X3X5X2X~.  o   o + o o   o     o     o     o     o     o o   o     o             o   O   O     , %X5X5X5X5X5X5X5X1X5X",
"5X5X3X1X5X5X5X3X]..     : : o + o   o     o o o   o o   o o o o o o o o o     o   o o o o o o         o     > @X6X5X1X1X5X5X4X5X",
"5X5X3X5X1X5X2X].O     o o ; o o o o o o o o o o o o o o o o o o   o o   o o o o o o o o   o o o o   + o       > @X4X5X5X1X5X5X1X",
"5X5X5X3X5X5X_.+   .     ; ; o         o     o     o         o     o     o o   o   o     o     o o o o           @ XX5X5X5X5X1X5X",
"4X2X5X5X5X).  o . . .   ; ; o     o o   o     o o     o o     o o   o             o o     o o   o o     o         >  X5X1X4X1X<X",
"5X5X5X3X^..     .   .   ; ;   .   o     o     o   o o   o     o     o o   o o   o         o       o   o             = {.5X1X5X5X",
"2X5X3X]..   +     . .   o o           o   o         o     o       o     o     o     o o o     o o o o     o       O   @ '.5X5X1X",
"5X1X^.o +           . o o ;   .                                                         o             o                 @ '.5X5X",
"1X)..     .   #       o o o   .                   o                           o                   o o         o X         X ].5X",
"(.    +               o ; o                                                                                         .       + ^.",
". .       O   . . $ % $ $ $ $ % $ $ $ $ $ $ $ $ $ $ $ $ $ $ $ $ % $ % $ $ $ $ $ $ % $ $ $ $ % $ $ % $ % $ $ $ $ .           o . ",
"| }  .[ X.r . 1 h x j j h h h j j h h h j h h h j h h h h h j j j x j h h h h j x j j j j j j j j h h h j h h f % . a ..[ ..} } ",
"5X1X5X5X3X..$ g 0.>.;.-.<.8.<.-.,.<.,.,.,.,.<.,.w.<.<.,.2.,.4.;.=.u.<.2.q.,.-.<.<.<.;.<.,.,.8.8.-.<.2.%.4.;.-.V 5 $ R.5X5X5X5X5X",
"5X5X5X5X5XO.$ g q.y.r.e.i.i.e.r.e.r.r.r.r.r.r.r.r.y.r.y.e.r.e.p.p.y.e.=.u.>.e.y.e.e.e.e.e.i.y.t.g.g.t.y.s.p.y.7.g $ W.5X5X5X5X4X",
"5X5X1X4X5XO.$ f 9.r.p.s.r.y.s.s.p.p.p.p.p.p.p.p.p.s.p.p.r.p.p.r.=.*.,.%.0.0.%.5.5.,.2.%.1.7.5.7.6.9.:.g.d.a.s.8.d $ W.5X2X5X5X4X",
"5X5X5X5X5X+.% f <.a.a.p.s.s.s.s.p.p.p.p.p.p.p.p.p.s.s.p.p.p.p.i.j 4 1 < < < < 1 1 1 < < < < < < 1 4 h $.e.p.p.;.f $ E.4X5X4X4X4X",
"5X5X5X5X1X{ % f u.s.p.p.i.t.t.e.i.e.e.e.e.i.y.i.t.t.e.e.p.r.p.;.d $ . .     . O . . . .   . O . $ $ 1 M ;.f.s.8.d $ U.4X5X4X4X4X",
"5X5X5X5X5XO.$ f <.a.p.e.,.1.1.0.0.0.q.0.0.0.0.0.0.0.<.u.s.s.p.<.d . y I I I I D I I I I I I T I G % 6 V =.p.p.;.d % E.5X5X5X5X4X",
"5X5X1X5X5XO.$ l <.f.r.*.j d d d 5 5 d d 5 5 5 d d d j n t.r.r.<.d $ y Q E E ~ Q ^ ^ ~ E E Q Q Q Q $ 1 V t.s.p.<.d $ Y.5X5X5X5X5X",
"5X5X5X5X5XO.$ h <.s.e.1.5 < % $ . $ $ $ . . $ $ % < 4 b 9.f.r.<.d $ y ~ Q Q Q ~ ~ ) Q Q Q Q Q ( Q $ < B ;.r.p.-.d $ W.5X5X5X5X5X",
"5X5X1X5X5XO.% f :.r.i.1.1 $ .X|.oX X/.  , [.oX|.XXu 1 v 9.y.r.;.5 $ y Q Q Q Q Q ~ ~ Q E Q Q ( W W O < B <.r.r.,.d $ T.5X5X5X5X5X",
"5X5X1X1X5X| $ h <.y.y.5.< & &X5X5X5X*X  , 4X5X2X1XS < x >.d.p.3.d . r ^ / W Q Q Q Q Q W W / Q Q Q $ 1 N t.p.p.<.f % T.5X5X5X5X4X",
"5X5X5X5X5X| % h h.s.y.$.< - -X4X5X5X=XO w 2X5X5X5XG 1 v h.d.p.;.d & 0 ^ ( W W Q Q Q Q Q W Q ( Q ( $ 4 V e.a.p.,.d % T.5X5X5X5X4X",
"5X5X5X5X5XO.$ h ;.p.d.5.1   ;X5X5X5X$X. q 5X5X4X5Xs % c <.p.r.-.5 $ y ~ Q Q ( ( ) Q ( Q ( Q ( ) ! % 4 N e.p.r.-.d . W.5X5X5X5X5X",
"5X5X5X5X5X..$ h u.s.s.&.< X E._.^.(.U.. > ~._.^./.y < c u.p.r.4.d $ y ~ Q ( ( ( ) ) ~ Q ( ( ) ( Q $ 1 N e.p.p.2.5 . E.5X3X5X5X5X",
"5X5X5X5X5X .$ f ;.p.p.2.1     o           +     o O < x g.j.r.-.d $ y ~ Q Q ( ( ) ) Q Q Q ( Q Q W . 1 $.r.a.p.3.d . E.5X5X5X1X5X",
"3X5X5X5X5X .$ f ;.p.s.&.< . E _ ` / R   + ' ' ' ] * < c g.d.r.3.5 $ r E / Q Q ( Q Q Q E Q Q Q Q W . 1 V e.a.p.<.d $ R.5X5X5X5X5X",
"5X5X5X5X5X .$ f 4.r.f.,.< . -X5X4X4X#X  q 2X5X5X5XG < c g.s.r.4.d $ r Q Q Q ) Q Q Q Q / Q ^ Q Q Q $ 1 B e.p.p.<.d $ W.5X5X5X5X5X",
"5X5X5X5X5X..% h <.r.r.,.1 & :X5X5X5X#X. w 5X5X5X2XG < x t.d.p.-.5 . r / Q Q ( ( Q / E E Q Q Q E E $ 1 V =.p.p.<.d $ W.5X5X5X5X5X",
"5X5X5X5X5XO.% h u.d.p.:.1 . ;X5X5X3X=X  w 4X4X5X5Xs < c h.d.p.;.d $ r Q Q ( ~ ) Q Q W Q E Q Q / Q $ 1 V ;.p.p.;.d $ W.5X5X5X5X5X",
"4X5X4X4X5X+.% h *.s.r.%.1 - &X5X5X5X=XO q 7X5X5X2XD < c 9.d.p.3.d $ r Q Q ( ( ~ Q / / E Q Q Q Q E $ 1 V t.p.p.<.d $ W.5X5X5X5X5X",
"5X5X1X5X5X..% k 8.y.y.1.< . ] o.} | ] . @ o. .{  .8 < b 9.d.s.<.d $ r Q Q ( Q ( Q Q Q Q Q E Q Q E $ 1 V >.p.p.<.d $ W.5X5X5X5X5X",
"5X5X4X5X5XO.% k <.r.r.,.5 % $ $ % % % % $ $ % % $ < 5 n t.d.d.;.d $ r Q Q ( ( Q Q Q W Q Q ^ Q Q Q $ 1 V ;.p.p.<.d $ W.5X5X5X5X5X",
"5X5X1X1X5X..% k 8.s.s.e.n j j l h l x x j x x j x x b *.r.a.a.<.d $ r Q / Q ) Q Q Q Q Q Q Q Q / E $ 1 V t.r.p.;.d $ W.5X5X5X5X5X",
"5X1X5X5X5X..$ k :.d.a.a.=.8.7.8.7.7.9.<.<.<.k.;.2.,.;.i.p.a.p.;.d $ r Q Q ( ~ Q Q / E Q Q E Q Q E $ 1 B u.p.p.<.d $ W.5X5X5X5X5X",
"4X5X5X5X5X..% g 9.a.a.a.a.i.s.s.i.e.e.r.p.p.p.r.e.e.e.r.p.p.e.4.d $ r Q Q Q Q ) Q Q Q E Q Q Q Q E $ 1 M t.f.p.;.d $ W.5X5X5X5X5X",
"1X5X5X5X5X..$ k <.p.a.a.a.p.a.p.p.r.p.a.p.a.a.a.p.p.r.p.p.p.r.4.d . r Q / Q Q ) Q Q W Q ^ Q Q E Q $ 1 M t.p.p.<.d $ W.5X5X5X5X5X",
"5X5X5X4X5X..$ f q.p.p.p.r.r.p.p.r.r.p.p.a.a.a.a.p.p.p.p.a.p.p.<.d $ r Q Q Q ~ ) Q Q / Q / Q Q Q E $ 1 B t.r.r.<.f $ W.5X5X5X5X5X",
"5X5X5X5X5XO.$ f ,.e.r.r.r.r.p.r.p.r.p.p.p.p.p.p.a.p.s.a.p.s.s.<.d $ r / _ ( ) ) Q Q W E E E Q Q E $ 1 V u.p.p.<.d $ W.5X5X5X5X5X",
"5X5X4X4X5X+.% k <.r.p.p.p.p.p.p.p.p.p.p.p.p.p.r.p.r.y.s.r.f.p.,.d $ r Q W Q ! ! Q Q / Q Q Q Q Q E $ 1 B u.r.p.;.d $ W.5X5X5X5X5X",
"5X5X4X5X3X+.% l 8.p.r.p.a.f.p.a.s.p.p.p.p.r.p.y.r.s.y.y.r.r.r.3.5 $ r Q Q ' ) ) Q Q E Q Q E Q Q Q % 1 B u.p.p.<.d $ W.5X5X5X5X5X",
"5X5X5X5X5X+.% k 7.y.e.e.r.y.f.r.r.s.r.e.r.p.r.r.p.r.p.r.r.r.p.<.d $ y E Q ( ( Q / Q ^ / Q Q Q Q R $ 1 V =.p.p.<.d $ W.5X5X5X5X5X",
"5X5X5X5X5X+.$ g B %.$.$.6.6.$.%.$.%.%.&.$.%.&.%.%.:.%.&.&.&.&.m 5 . , t t t t t t t t t t t t t p . < C $.%.%.V 5 $ W.5X5X5X5X5X",
"5X5X5X5X5X... . $ % % % % % % < % % % % % % % % < < % < % % < % . .                                 . $ % % < $ . . E.5X5X5X5X5X",
"5X5X5X5X5XX.                                                                                                        E.5X5X5X5X5X"
};
